<!-- Generator: Adobe Illustrator 19.2.1, SVG Export Plug-In  -->
<svg version="1.1"
	 xmlns="http://www.w3.org/2000/svg" xmlns:xlink="http://www.w3.org/1999/xlink" xmlns:a="http://ns.adobe.com/AdobeSVGViewerExtensions/3.0/"
	 x="0px" y="0px" width="174.2px" height="174.2px" viewBox="0 0 174.2 174.2" style="enable-background:new 0 0 174.2 174.2;"
	 xml:space="preserve">
<style type="text/css">
	.st0{fill:#CE2929;}
</style>
<defs>
</defs>
<path class="st0" d="M146.5,1c-1.4-1.4-3.7-1.4-5.1,0L89.7,52.8c-1.4,1.4-3.7,1.4-5.1,0L32.8,1c-1.4-1.4-3.7-1.4-5.1,0L1,27.7
	c-1.4,1.4-1.4,3.7,0,5.1l51.8,51.8c1.4,1.4,1.4,3.7,0,5.1L1,141.5c-1.4,1.4-1.4,3.7,0,5.1l26.7,26.7c1.4,1.4,3.7,1.4,5.1,0
	l51.8-51.8c1.4-1.4,3.7-1.4,5.1,0l51.8,51.8c1.4,1.4,3.7,1.4,5.1,0l26.7-26.7c1.4-1.4,1.4-3.7,0-5.1l-51.8-51.8
	c-1.4-1.4-1.4-3.7,0-5.1l51.8-51.8c1.4-1.4,1.4-3.7,0-5.1L146.5,1z"/>
</svg>
