<!-- Generator: Adobe Illustrator 19.2.1, SVG Export Plug-In  -->
<svg version="1.1"
	 xmlns="http://www.w3.org/2000/svg" xmlns:xlink="http://www.w3.org/1999/xlink" xmlns:a="http://ns.adobe.com/AdobeSVGViewerExtensions/3.0/"
	 x="0px" y="0px" width="332.9px" height="259px" viewBox="0 0 332.9 259" style="enable-background:new 0 0 332.9 259;"
	 xml:space="preserve">
<style type="text/css">
	.st0{clip-path:url(#SVGID_2_);fill:#88BE36;}
	.st1{clip-path:url(#SVGID_4_);fill:#88BE36;}
</style>
<defs>
</defs>
<g>
	<g>
		<defs>
			<rect id="SVGID_1_" x="0" y="0" width="332.9" height="259"/>
		</defs>
		<clipPath id="SVGID_2_">
			<use xlink:href="#SVGID_1_"  style="overflow:visible;"/>
		</clipPath>
		<path class="st0" d="M329.2,40.3L292.1,3.3c-4.4-4.4-11.5-4.4-15.9,0L121.9,157.6L56.2,92c-4.4-4.4-11.5-4.4-15.9,0L3.3,129.1
			c-4.4,4.4-4.4,11.5,0,15.9l110.6,110.6c2.2,2.2,5.1,3.3,7.9,3.3s5.8-1.1,7.9-3.3L329.2,56.2c2.1-2.1,3.3-5,3.3-7.9
			S331.3,42.5,329.2,40.3L329.2,40.3z M329.2,40.3"/>
	</g>
</g>
</svg>
